<svg xmlns="http://www.w3.org/2000/svg" xmlns:xlink="http://www.w3.org/1999/xlink" version="1.1" x="0px" y="0px" viewBox="0 0 100 125" style="enable-background:new 0 0 100 100;" xml:space="preserve"><path d="M18.1029358,27.7984295c-1.3807373,0-2.5-1.1192627-2.5-2.5c0-1.3806763,1.1192627-2.5,2.5-2.5s2.5,1.1193237,2.5,2.5  C20.6029358,26.6791668,19.4836731,27.7984295,18.1029358,27.7984295z M16.5770569,50.8010559c-0.8286133,0-1.5,0.671875-1.5,1.5  v2.4013672c0,0.828125,0.6713867,1.5,1.5,1.5s1.5-0.671875,1.5-1.5v-2.4013672  C18.0770569,51.4729309,17.4056702,50.8010559,16.5770569,50.8010559z M24.2772522,58.5022278c0-0.828125-0.6713867-1.5-1.5-1.5  h-2.4003906c-0.8286133,0-1.5,0.671875-1.5,1.5s0.6713867,1.5,1.5,1.5h2.4003906  C23.6058655,60.0022278,24.2772522,59.3303528,24.2772522,58.5022278z M84.42276,16.5901165h2.4003906  c0.828125,0,1.5-0.6713867,1.5-1.5s-0.671875-1.5-1.5-1.5H84.42276c-0.828125,0-1.5,0.6713867-1.5,1.5  S83.594635,16.5901165,84.42276,16.5901165z M16.5770569,60.8010559c-0.8286133,0-1.5,0.671875-1.5,1.5v2.4013672  c0,0.828125,0.6713867,1.5,1.5,1.5s1.5-0.671875,1.5-1.5v-2.4013672  C18.0770569,61.4729309,17.4056702,60.8010559,16.5770569,60.8010559z M25.1745911,84.2050476c-1.3807373,0-2.5,1.1192627-2.5,2.5  c0,1.3806763,1.1192627,2.5,2.5,2.5c1.3806763,0,2.5-1.1193237,2.5-2.5  C27.6745911,85.3243103,26.5552673,84.2050476,25.1745911,84.2050476z M86.1231384,51.6408386c0,1.3807373,1.1193237,2.5,2.5,2.5  c1.3807373,0,2.5-1.1192627,2.5-2.5s-1.1192627-2.5-2.5-2.5C87.2424622,49.1408386,86.1231384,50.2601013,86.1231384,51.6408386z   M80.6229553,12.7903118c0.828125,0,1.5-0.6713867,1.5-1.5V8.8899212c0-0.8286133-0.671875-1.4999995-1.5-1.4999995  s-1.5,0.6713862-1.5,1.4999995v2.4003906C79.1229553,12.1189251,79.7948303,12.7903118,80.6229553,12.7903118z   M12.7772522,57.0022278h-2.4003906c-0.8286133,0-1.5,0.671875-1.5,1.5s0.6713867,1.5,1.5,1.5h2.4003906  c0.8286133,0,1.5-0.671875,1.5-1.5S13.6058655,57.0022278,12.7772522,57.0022278z M74.42276,16.5901165h2.4003906  c0.828125,0,1.5-0.6713867,1.5-1.5s-0.671875-1.5-1.5-1.5H74.42276c-0.828125,0-1.5,0.6713867-1.5,1.5  S73.594635,16.5901165,74.42276,16.5901165z M46.4073181,8.023344c1.3806763,0,2.5-1.1193233,2.5-2.4999995  c0-1.3807373-1.1193237-2.5-2.5-2.5c-1.3807373,0-2.5,1.1192627-2.5,2.5  C43.9073181,6.9040208,45.0265808,8.023344,46.4073181,8.023344z M62.1219788,39.553009  c0-3.0161133,2.0390625-5.4702148,4.5458984-5.4702148s4.546875,2.4541016,4.546875,5.4702148  s-2.0400391,5.4702148-4.546875,5.4702148S62.1219788,42.5691223,62.1219788,39.553009z M65.1219788,39.553009  c0,1.4555664,0.8144531,2.4702148,1.5458984,2.4702148s1.546875-1.0146484,1.546875-2.4702148  s-0.8154297-2.4702148-1.546875-2.4702148S65.1219788,38.0974426,65.1219788,39.553009z M82.1229553,18.8899212  c0-0.8286133-0.671875-1.5-1.5-1.5s-1.5,0.6713867-1.5,1.5v2.4003906c0,0.8286133,0.671875,1.5,1.5,1.5s1.5-0.6713867,1.5-1.5  V18.8899212z M79.6229553,79.2024231h-2.4003906c-0.828125,0-1.5,0.671875-1.5,1.5s0.671875,1.5,1.5,1.5h2.4003906  c0.828125,0,1.5-0.671875,1.5-1.5S80.4510803,79.2024231,79.6229553,79.2024231z M83.42276,83.0022278  c-0.828125,0-1.5,0.671875-1.5,1.5v2.4003906c0,0.828125,0.671875,1.5,1.5,1.5s1.5-0.671875,1.5-1.5v-2.4003906  C84.92276,83.6741028,84.250885,83.0022278,83.42276,83.0022278z M89.6229553,79.2024231h-2.4003906  c-0.828125,0-1.5,0.671875-1.5,1.5s0.671875,1.5,1.5,1.5h2.4003906c0.828125,0,1.5-0.671875,1.5-1.5  S90.4510803,79.2024231,89.6229553,79.2024231z M83.42276,73.0022278c-0.828125,0-1.5,0.671875-1.5,1.5v2.4003906  c0,0.828125,0.671875,1.5,1.5,1.5s1.5-0.671875,1.5-1.5v-2.4003906C84.92276,73.6741028,84.250885,73.0022278,83.42276,73.0022278z   M63.2372131,28.8923626c0,3.1992207-2.1396484,5.8017597-4.7685547,5.8017597s-4.7685547-2.6025391-4.7685547-5.8017597  s2.1396484-5.8022461,4.7685547-5.8022461S63.2372131,25.6931438,63.2372131,28.8923626z M60.2372131,28.8923626  c0-1.6513672-0.9316406-2.8022461-1.7685547-2.8022461s-1.7685547,1.1508789-1.7685547,2.8022461  c0,1.6508789,0.9316406,2.8017578,1.7685547,2.8017578S60.2372131,30.5432415,60.2372131,28.8923626z M40.2377014,28.8923626  c0-3.1992188,2.1391602-5.8022461,4.7685547-5.8022461c2.6289063,0,4.7680664,2.6030273,4.7680664,5.8022461  s-2.1391602,5.8017597-4.7680664,5.8017597C42.3768616,34.6941223,40.2377014,32.0915833,40.2377014,28.8923626z   M43.2377014,28.8923626c0,1.6508789,0.9321289,2.8017578,1.7685547,2.8017578s1.7680664-1.1508789,1.7680664-2.8017578  c0-1.6513672-0.9316406-2.8022461-1.7680664-2.8022461S43.2377014,27.2409954,43.2377014,28.8923626z M41.3529358,39.553009  c0,3.0161133-2.0395508,5.4702148-4.5463867,5.4702148s-4.5458984-2.4541016-4.5458984-5.4702148  s2.0390625-5.4702148,4.5458984-5.4702148S41.3529358,36.5368958,41.3529358,39.553009z M38.3529358,39.553009  c0-1.4555664-0.8149414-2.4702148-1.5463867-2.4702148c-0.730957,0-1.5458984,1.0146484-1.5458984,2.4702148  s0.8149414,2.4702148,1.5458984,2.4702148C37.5379944,42.0232239,38.3529358,41.0085754,38.3529358,39.553009z   M62.4413147,45.5979309c0,3.4736328-2.2890625,6.2988281-5.1025391,6.2988281  c-0.8349609,0-1.6396484-0.2431641-2.3583984-0.7041016c-0.9707031,0.7753906-2.0859375,1.1894531-3.2421875,1.1894531  c-1.1572266,0-2.2724609-0.4140625-3.2436523-1.1894531c-0.71875,0.4609375-1.5229492,0.7041016-2.3583984,0.7041016  c-2.8134766,0-5.1020508-2.8251953-5.1020508-6.2988281c0-3.4511719,2.2597656-6.2631836,5.0483398-6.2988281  c1.0947266-2.8564453,3.2182617-4.6357422,5.6557617-4.6357422s4.5605469,1.7788086,5.6542969,4.6357422  C60.1815491,39.3347473,62.4413147,42.146759,62.4413147,45.5979309z M59.4413147,45.5979309  c0-1.7578125-0.9824219-3.2993164-2.1025391-3.2993164c-0.1455078,0-0.2988281,0.0302734-0.4570313,0.090332  c-0.4013672,0.1513672-0.8496094,0.125-1.2285156-0.0751953c-0.3808594-0.199707-0.6572266-0.5527344-0.7597656-0.9697266  c-0.5322266-2.1669922-1.8300781-3.6806641-3.1552734-3.6806641c-1.3256836,0-2.6240234,1.5136719-3.1572266,3.6811523  c-0.1025391,0.4169922-0.3789063,0.7700195-0.7592773,0.9697266c-0.3798828,0.199707-0.828125,0.2275391-1.2294922,0.0742188  c-0.1591797-0.0605469-0.3085938-0.0898438-0.4560547-0.0898438c-1.1196289,0-2.1020508,1.5415039-2.1020508,3.2993164  s0.9824219,3.2993164,2.1020508,3.2993164c0.5942383,0,1.0488281-0.4453125,1.2670898-0.7109375  c0.2851563-0.3466797,0.7104492-0.5473633,1.1586914-0.5473633c0.0048828,0,0.0097656,0,0.0146484,0  c0.4541016,0.0043945,0.8813477,0.2143555,1.1625977,0.5703125c0.4223633,0.5351563,1.1123047,1.1733398,1.9990234,1.1733398  c0.8857422,0,1.5751953-0.6381836,1.9970703-1.1733398c0.28125-0.355957,0.7089844-0.565918,1.1630859-0.5703125  c0.453125,0.0087891,0.8857422,0.1967773,1.1738281,0.5473633c0.2666016,0.3242188,0.7021484,0.7109375,1.2666016,0.7109375  C58.4588928,48.8972473,59.4413147,47.3557434,59.4413147,45.5979309z M69.2245178,28.6965618  c0.0009766-0.034668,0.0009766-0.0693359,0.0009766-0.1040039c0-6.2973633-5.1230469-11.4204102-11.4199219-11.4204102  c-2.171875,0-4.2490234,0.6030273-6.0683594,1.753418c-1.8193359-1.1503906-3.8955078-1.753418-6.0673828-1.753418  c-6.2973633,0-11.4208984,5.1230469-11.4208984,11.4204102c0,0.034668,0,0.0693359,0.0004883,0.1040039  c-4.4580078,1.7587891-7.4770508,6.1093769-7.4770508,10.9750996c0,5.0913086,3.2436523,9.5932617,8.0712891,11.2016602  c1.2739258,0.4248047,2.1206055,1.7333984,2.059082,3.1816406l-1.7539063,41.3564453  c-0.0351563,0.8271484,0.6074219,1.5273438,1.4350586,1.5625c0.8212891,0.0507813,1.5268555-0.6083984,1.5620117-1.4355469  l0.0026855-0.0631104l1.7512207-41.293335c0.1181641-2.7783203-1.5712891-5.309082-4.1079102-6.1542969  c-3.6005859-1.2001953-6.0195313-4.5581055-6.0195313-8.355957c0-3.9375,2.652832-7.4233398,6.4506836-8.4765644  c0.7119141-0.1972656,1.1743164-0.8837891,1.0893555-1.6176758c-0.0375977-0.3232422-0.0634766-0.6513672-0.0634766-0.9848633  c0-4.6430664,3.777832-8.4204102,8.4208984-8.4204102c1.875,0,3.6552734,0.6118164,5.1484375,1.7695313  c0.5410156,0.4189453,1.296875,0.4189453,1.8378906,0c1.4931641-1.1577148,3.2744141-1.7695313,5.1494141-1.7695313  c4.6425781,0,8.4199219,3.7773438,8.4199219,8.4204102c0,0.3022461-0.0205078,0.6235352-0.0625,0.980957  c-0.0869141,0.7353516,0.375,1.4238281,1.0888672,1.621582c3.7978516,1.0532246,6.4511719,4.5390644,6.4511719,8.4765644  c0,3.7978516-2.4189453,7.1557617-6.0195313,8.3554688c-2.5371094,0.8457031-4.2265625,3.3764648-4.1083984,6.1547852  l1.7512207,41.293335l0.0026855,0.0631104c0.0341797,0.8056641,0.6992188,1.4365234,1.4980469,1.4365234  c0.0214844,0,0.0429688,0,0.0644531-0.0009766c0.828125-0.0351563,1.4707031-0.7353516,1.4355469-1.5625l-1.7539063-41.3574219  c-0.0625-1.4482422,0.7841797-2.7558594,2.0595703-3.1806641c4.8271484-1.6083984,8.0703125-6.1103516,8.0703125-11.2016602  C76.7030334,34.8059387,73.6835022,30.4553509,69.2245178,28.6965618z"/><text x="0" y="115" fill="#000000" font-size="5px" font-weight="bold" font-family="'Helvetica Neue', Helvetica, Arial-Unicode, Arial, Sans-serif">Created by Llisole</text><text x="0" y="120" fill="#000000" font-size="5px" font-weight="bold" font-family="'Helvetica Neue', Helvetica, Arial-Unicode, Arial, Sans-serif">from the Noun Project</text></svg>